<?xml version="1.0" encoding="utf-8"?><svg xmlns="http://www.w3.org/2000/svg" xmlns:xlink="http://www.w3.org/1999/xlink" x="-200" y="-100" width="400px" height="200px" viewBox="-200 -100 400 200">
<g>
<g><text x="0" y="0" font-family="sans-serif" font-size="18" text-anchor="middle" transform="matrix(1,0,0,1,-101,-75)">additiv</text><g><path d="M-129.690 -61.380L-128.690 -61.350L-127.700 -61.300L-126.700 -61.220L-125.710 -61.130L-124.720 -61.010L-123.730 -60.870L-122.750 -60.720L-121.760 -60.550L-120.780 -60.350L-119.810 -60.140L-118.840 -59.910L-117.870 -59.660L-116.920 -59.390L-115.960 -59.100L-115.010 -58.790L-114.070 -58.460L-113.130 -58.110L-112.210 -57.750L-111.290 -57.360L-110.370 -56.960L-109.470 -56.540L-108.570 -56.100L-107.690 -55.640L-106.810 -55.170L-105.940 -54.670L-105.080 -54.170L-104.240 -53.640L-103.400 -53.100L-102.580 -52.540L-101.760 -51.960L-101.050 -51.380L-102.610 -50.140L-103.380 -49.500L-104.130 -48.850L-104.870 -48.180L-105.600 -47.490L-106.310 -46.800L-107.010 -46.080L-107.690 -45.360L-108.360 -44.620L-109.020 -43.870L-109.660 -43.100L-110.290 -42.330L-110.890 -41.540L-111.490 -40.740L-112.630 -39.100L-113.170 -38.270L-113.710 -37.420L-114.220 -36.560L-114.710 -35.700L-115.650 -33.940L-116.090 -33.040L-116.510 -32.140L-116.920 -31.230L-117.300 -30.310L-117.670 -29.380L-118.020 -28.450L-118.350 -27.500L-118.660 -26.560L-118.950 -25.600L-119.230 -24.650L-119.480 -23.680L-119.720 -22.710L-119.930 -21.740L-120.130 -20.760L-120.300 -19.780L-120.450 -18.790L-120.590 -17.800L-120.710 -16.810L-120.810 -15.820L-120.880 -14.830L-120.940 -13.830L-120.980 -12.830L-121 -11.840L-120.980 -9.840L-120.930 -8.840L-120.870 -7.850L-120.830 -7.310L-121.430 -7.050L-122.320 -6.640L-123.210 -6.210L-124.090 -5.760L-124.950 -5.300L-125.810 -4.820L-126.660 -4.320L-127.490 -3.810L-128.320 -3.280L-129.130 -2.740L-129.940 -2.180L-130.730 -1.610L-131.510 -1.020L-132.270 -0.420L-133.030 0.200L-133.770 0.840L-134.500 1.480L-135.220 2.140L-135.920 2.820L-136.610 3.500L-137.290 4.210L-137.950 4.920L-138.600 5.650L-139.240 6.390L-139.860 7.140L-140.470 7.900L-141.060 8.680L-141.640 9.470L-142.200 10.270L-142.750 11.080L-143.280 11.900L-143.800 12.730L-144.300 13.580L-144.780 14.430L-145.250 15.300L-145.700 16.170L-146.130 17.050L-146.550 17.950L-146.950 18.850L-147.330 19.770L-147.700 20.690L-148.040 21.620L-148.370 22.560L-148.680 23.510L-148.970 24.460L-149.250 25.430L-149.500 26.400L-149.740 27.380L-149.950 28.370L-150.150 29.360L-150.320 30.360L-150.480 31.370L-150.620 32.390L-150.730 33.410L-150.830 34.430L-151.170 34.360L-152.080 33.950L-152.980 33.520L-153.870 33.070L-154.750 32.610L-155.620 32.120L-156.490 31.620L-157.340 31.100L-158.180 30.570L-159.010 30.020L-159.830 29.450L-160.640 28.870L-161.440 28.270L-162.230 27.660L-163 27.030L-163.750 26.370L-164.500 25.720L-165.240 25.040L-165.950 24.350L-166.660 23.650L-167.350 22.920L-168.030 22.190L-168.690 21.450L-169.340 20.690L-169.970 19.920L-170.590 19.140L-171.190 18.340L-171.780 17.530L-172.350 16.710L-172.900 15.880L-173.440 15.040L-173.960 14.190L-174.460 13.330L-174.950 12.460L-175.420 11.580L-175.870 10.690L-176.300 9.790L-176.710 8.880L-177.110 7.970L-177.490 7.040L-177.840 6.110L-178.180 5.170L-178.500 4.230L-178.810 3.280L-179.090 2.320L-179.350 1.360L-179.600 0.400L-179.820 -0.580L-180.030 -1.550L-180.210 -2.530L-180.380 -3.520L-180.530 -4.500L-180.650 -5.490L-180.760 -6.480L-180.850 -7.480L-180.910 -8.470L-180.960 -9.470L-180.990 -10.470L-181 -11.460L-180.990 -12.460L-180.960 -13.460L-180.900 -14.450L-180.840 -15.450L-180.640 -17.430L-180.510 -18.420L-180.360 -19.410L-180.190 -20.390L-180 -21.370L-179.800 -22.350L-179.570 -23.320L-179.320 -24.280L-179.060 -25.250L-178.770 -26.200L-178.460 -27.150L-178.140 -28.090L-177.800 -29.030L-177.440 -29.960L-177.060 -30.880L-176.660 -31.800L-176.240 -32.700L-175.810 -33.600L-175.360 -34.490L-174.890 -35.370L-174.400 -36.240L-173.900 -37.100L-173.370 -37.950L-172.830 -38.790L-172.280 -39.620L-171.710 -40.440L-171.120 -41.240L-170.520 -42.040L-169.890 -42.820L-169.260 -43.590L-168.610 -44.340L-167.940 -45.090L-167.270 -45.820L-166.570 -46.540L-165.860 -47.230L-165.150 -47.930L-164.410 -48.600L-163.660 -49.260L-162.900 -49.910L-162.130 -50.530L-161.340 -51.150L-160.540 -51.750L-159.730 -52.330L-158.910 -52.890L-158.070 -53.440L-157.230 -53.970L-156.380 -54.490L-155.510 -54.990L-154.640 -55.470L-153.760 -55.930L-152.870 -56.380L-151.960 -56.800L-151.060 -57.210L-150.140 -57.600L-149.210 -57.970L-148.280 -58.330L-147.340 -58.670L-146.390 -58.980L-145.440 -59.280L-144.480 -59.560L-143.520 -59.810L-142.550 -60.050L-141.580 -60.270L-140.600 -60.470L-139.620 -60.660L-138.640 -60.820L-137.650 -60.960L-136.660 -61.080L-135.670 -61.180L-134.670 -61.270L-133.680 -61.330L-132.680 -61.370L-131.680 -61.390L-130.690 -61.400Z" style="fill:#FF0000;stroke:#000000;stroke-width:1;stroke-opacity:0;"/><path d="M-69.690 -61.380L-68.690 -61.350L-67.700 -61.300L-66.700 -61.220L-65.710 -61.130L-64.720 -61.010L-63.730 -60.870L-62.750 -60.720L-61.760 -60.550L-60.780 -60.350L-59.810 -60.140L-58.840 -59.910L-57.870 -59.660L-56.910 -59.390L-55.960 -59.100L-55.010 -58.790L-54.070 -58.460L-53.130 -58.110L-52.210 -57.750L-51.290 -57.360L-50.370 -56.960L-49.470 -56.540L-48.570 -56.100L-47.690 -55.640L-46.810 -55.160L-45.940 -54.670L-45.080 -54.170L-44.240 -53.640L-43.400 -53.100L-42.570 -52.540L-41.760 -51.960L-40.950 -51.370L-40.170 -50.760L-39.390 -50.140L-38.620 -49.500L-37.870 -48.850L-37.130 -48.180L-36.400 -47.490L-35.690 -46.800L-34.990 -46.090L-34.310 -45.360L-33.630 -44.620L-32.980 -43.870L-32.340 -43.100L-31.710 -42.330L-31.100 -41.540L-30.510 -40.740L-29.930 -39.920L-29.370 -39.100L-28.820 -38.260L-28.300 -37.420L-27.780 -36.560L-27.290 -35.700L-26.810 -34.820L-26.350 -33.940L-25.910 -33.040L-25.490 -32.140L-25.090 -31.220L-24.700 -30.300L-24.330 -29.380L-23.980 -28.440L-23.650 -27.500L-23.340 -26.560L-23.050 -25.600L-22.780 -24.640L-22.520 -23.680L-22.290 -22.710L-22.070 -21.730L-21.880 -20.760L-21.700 -19.770L-21.540 -18.790L-21.410 -17.800L-21.290 -16.810L-21.200 -15.820L-21.120 -14.820L-21.060 -13.830L-21.020 -12.830L-21 -11.830L-21 -10.840L-21.020 -9.840L-21.070 -8.840L-21.120 -7.850L-21.210 -6.850L-21.300 -5.860L-21.560 -3.880L-21.720 -2.900L-21.900 -1.920L-22.100 -0.940L-22.320 0.030L-22.550 1L-22.810 1.970L-23.090 2.930L-23.380 3.880L-23.690 4.830L-24.030 5.770L-24.380 6.700L-24.750 7.620L-25.140 8.540L-25.550 9.450L-25.970 10.360L-26.410 11.250L-26.870 12.140L-27.350 13.010L-27.850 13.880L-28.360 14.730L-28.890 15.570L-29.440 16.410L-30 17.230L-30.590 18.040L-31.180 18.840L-31.790 19.630L-32.420 20.410L-33.060 21.170L-33.720 21.920L-34.390 22.650L-35.080 23.380L-35.780 24.090L-37.220 25.470L-37.970 26.130L-38.720 26.780L-39.490 27.420L-40.270 28.040L-41.060 28.650L-41.870 29.240L-42.680 29.810L-43.510 30.370L-44.350 30.910L-45.200 31.430L-46.060 31.940L-46.930 32.430L-47.800 32.900L-48.690 33.360L-49.590 33.800L-50.490 34.210L-51.190 34.250L-51.280 33.260L-51.400 32.270L-51.530 31.280L-51.690 30.300L-51.860 29.310L-52.060 28.340L-52.270 27.360L-52.500 26.390L-52.760 25.430L-53.030 24.470L-53.320 23.510L-53.630 22.560L-53.960 21.620L-54.310 20.690L-54.670 19.760L-55.060 18.840L-55.460 17.930L-55.880 17.030L-56.320 16.130L-56.780 15.240L-57.260 14.370L-57.750 13.500L-58.260 12.640L-58.790 11.800L-59.330 10.960L-59.890 10.130L-60.470 9.320L-61.060 8.520L-61.670 7.730L-62.290 6.950L-62.930 6.190L-63.590 5.430L-64.260 4.690L-64.940 3.970L-65.640 3.250L-66.350 2.560L-67.080 1.870L-67.810 1.200L-68.570 0.550L-69.330 -0.090L-70.110 -0.720L-70.900 -1.330L-71.700 -1.920L-72.520 -2.500L-73.340 -3.060L-74.180 -3.600L-75.020 -4.130L-75.880 -4.640L-76.750 -5.130L-77.630 -5.610L-78.510 -6.070L-79.400 -6.510L-80.310 -6.930L-81.170 -7.310L-81.130 -7.750L-81.070 -8.790L-81.020 -9.830L-81 -10.870L-81 -11.930L-81.020 -12.970L-81.070 -14.010L-81.130 -15.050L-81.220 -16.080L-81.320 -17.100L-81.450 -18.120L-81.590 -19.130L-81.760 -20.140L-81.950 -21.140L-82.150 -22.130L-82.380 -23.110L-82.620 -24.090L-82.890 -25.050L-83.170 -26.010L-83.470 -26.970L-83.790 -27.910L-84.130 -28.850L-84.480 -29.770L-84.860 -30.690L-85.250 -31.600L-85.660 -32.500L-86.080 -33.390L-86.520 -34.270L-86.980 -35.140L-87.460 -36.000L-87.950 -36.850L-88.460 -37.690L-88.980 -38.510L-89.520 -39.330L-90.080 -40.140L-90.650 -40.930L-91.230 -41.710L-91.830 -42.480L-92.450 -43.240L-93.080 -43.990L-93.720 -44.720L-94.380 -45.440L-95.050 -46.150L-95.730 -46.840L-96.430 -47.520L-97.140 -48.190L-97.860 -48.840L-98.600 -49.480L-99.350 -50.110L-100.110 -50.720L-100.880 -51.320L-101 -51.410L-100.540 -51.750L-99.730 -52.320L-98.910 -52.890L-98.070 -53.440L-97.230 -53.970L-96.380 -54.490L-94.640 -55.470L-93.760 -55.930L-92.870 -56.380L-91.960 -56.800L-91.060 -57.210L-90.140 -57.600L-89.210 -57.970L-88.280 -58.330L-87.340 -58.670L-86.390 -58.980L-85.440 -59.280L-84.480 -59.560L-83.520 -59.810L-82.550 -60.050L-81.580 -60.270L-80.600 -60.470L-79.620 -60.660L-78.640 -60.820L-77.650 -60.960L-76.660 -61.080L-75.670 -61.180L-74.670 -61.270L-73.680 -61.330L-72.680 -61.370L-71.680 -61.390L-70.690 -61.400Z" style="fill:#00FF00;stroke:#000000;stroke-width:1;stroke-opacity:0;"/><path d="M-100.730 28.810L-99.940 29.380L-99.130 29.940L-98.320 30.480L-97.490 31.010L-96.660 31.520L-95.810 32.020L-94.950 32.500L-94.090 32.960L-93.210 33.410L-92.320 33.840L-91.430 34.250L-90.520 34.650L-89.600 35.020L-88.680 35.380L-87.750 35.730L-86.800 36.050L-85.850 36.360L-84.900 36.640L-83.930 36.910L-82.950 37.160L-81.970 37.390L-80.980 37.600L-79.990 37.790L-78.980 37.970L-77.970 38.120L-76.960 38.250L-75.940 38.360L-74.910 38.450L-73.870 38.520L-72.830 38.570L-71.790 38.590L-70.740 38.600L-69.690 38.580L-68.650 38.550L-67.610 38.490L-66.580 38.410L-65.550 38.310L-64.530 38.190L-63.520 38.040L-62.510 37.880L-61.510 37.700L-60.520 37.500L-59.540 37.280L-58.560 37.040L-57.590 36.780L-56.620 36.500L-55.670 36.210L-54.720 35.890L-53.790 35.560L-52.860 35.210L-51.940 34.840L-51.170 34.510L-51.100 35.460L-51.050 36.450L-51.010 37.450L-51 38.450L-51.010 39.440L-51.030 40.440L-51.080 41.440L-51.150 42.430L-51.230 43.430L-51.340 44.420L-51.460 45.410L-51.600 46.400L-51.770 47.380L-51.950 48.360L-52.150 49.340L-52.380 50.310L-52.620 51.280L-52.890 52.240L-53.170 53.190L-53.460 54.150L-53.780 55.090L-54.120 56.030L-54.480 56.960L-54.860 57.880L-55.250 58.800L-55.660 59.710L-56.090 60.610L-56.540 61.500L-57 62.380L-57.490 63.250L-57.990 64.120L-58.510 64.970L-59.050 65.810L-59.600 66.640L-60.170 67.460L-60.750 68.270L-61.350 69.070L-61.970 69.850L-62.600 70.620L-63.250 71.380L-63.910 72.130L-64.590 72.860L-65.280 73.580L-65.980 74.280L-66.700 74.980L-67.430 75.650L-68.180 76.310L-68.940 76.960L-69.710 77.600L-70.490 78.220L-71.280 78.820L-72.090 79.400L-72.910 79.970L-73.740 80.520L-74.580 81.060L-75.440 81.580L-76.300 82.080L-77.170 82.560L-78.050 83.030L-78.940 83.480L-79.840 83.920L-80.750 84.330L-81.660 84.720L-82.590 85.100L-83.520 85.460L-84.460 85.800L-85.400 86.120L-86.350 86.420L-87.310 86.700L-88.270 86.960L-89.240 87.210L-90.210 87.430L-91.190 87.630L-92.170 87.820L-93.150 87.980L-94.140 88.130L-95.130 88.260L-96.120 88.370L-97.110 88.450L-98.110 88.520L-99.100 88.560L-100.100 88.590L-101.100 88.600L-102.090 88.580L-103.090 88.560L-104.090 88.510L-105.080 88.430L-106.080 88.350L-107.070 88.240L-108.060 88.110L-109.040 87.960L-110.020 87.780L-111 87.590L-111.980 87.390L-112.950 87.160L-113.920 86.910L-114.880 86.650L-115.840 86.360L-116.780 86.060L-117.730 85.740L-118.660 85.390L-120.520 84.650L-121.430 84.250L-122.340 83.830L-123.230 83.400L-124.120 82.940L-125 82.470L-125.870 81.980L-126.730 81.480L-127.580 80.950L-128.420 80.410L-129.250 79.860L-130.070 79.290L-130.870 78.700L-131.670 78.100L-132.450 77.480L-133.210 76.840L-133.970 76.190L-134.710 75.520L-135.440 74.840L-136.160 74.150L-136.860 73.440L-137.550 72.720L-138.220 71.980L-138.880 71.230L-139.520 70.470L-140.150 69.700L-140.770 68.910L-141.360 68.110L-141.940 67.300L-142.510 66.480L-143.060 65.640L-143.590 64.800L-144.110 63.950L-144.600 63.080L-145.080 62.210L-145.550 61.330L-145.990 60.430L-146.420 59.530L-146.830 58.620L-147.220 57.700L-147.590 56.780L-147.940 55.850L-148.280 54.910L-148.590 53.960L-148.890 53.010L-149.170 52.050L-149.430 51.090L-149.670 50.120L-149.880 49.140L-150.080 48.170L-150.260 47.190L-150.420 46.200L-150.560 45.210L-150.680 44.220L-150.780 43.230L-150.870 42.240L-150.930 41.240L-150.970 40.250L-150.990 39.250L-151 38.250L-150.980 37.250L-150.950 36.260L-150.890 35.260L-150.620 34.610L-148.760 35.350L-147.830 35.700L-146.890 36.020L-145.940 36.330L-144.980 36.620L-144.020 36.880L-143.050 37.130L-142.080 37.360L-141.110 37.570L-140.130 37.760L-139.150 37.940L-138.160 38.090L-137.170 38.220L-136.180 38.330L-135.190 38.430L-134.190 38.500L-133.200 38.550L-132.200 38.580L-131.200 38.600L-130.210 38.590L-129.210 38.570L-128.210 38.520L-127.220 38.460L-126.220 38.380L-125.230 38.270L-124.240 38.150L-123.260 38L-122.270 37.840L-121.290 37.660L-120.310 37.450L-119.340 37.230L-118.370 36.990L-117.410 36.730L-116.450 36.450L-115.500 36.150L-114.560 35.830L-113.620 35.500L-112.690 35.140L-111.760 34.760L-110.850 34.370L-109.930 33.960L-109.030 33.530L-108.150 33.080L-107.260 32.610L-106.390 32.130L-105.530 31.630L-104.670 31.120L-103.830 30.580L-103 30.030L-102.180 29.460L-101.370 28.880L-101 28.600Z" style="fill:#0000FF;stroke:#000000;stroke-width:1;stroke-opacity:0;"/><path d="M-120.790 -6.850L-120.690 -5.860L-120.580 -4.870L-120.430 -3.880L-120.280 -2.900L-120.100 -1.920L-119.900 -0.940L-119.690 0.030L-119.450 1L-119.190 1.970L-118.910 2.920L-118.620 3.880L-118.310 4.820L-117.970 5.760L-117.620 6.700L-117.250 7.620L-116.860 8.540L-116.460 9.450L-116.030 10.350L-115.590 11.250L-114.650 13.010L-114.150 13.870L-113.640 14.730L-113.100 15.570L-112.560 16.400L-111.990 17.230L-111.410 18.040L-110.820 18.840L-110.210 19.630L-109.580 20.400L-108.930 21.160L-108.280 21.910L-107.610 22.650L-106.920 23.380L-106.220 24.090L-105.510 24.780L-104.780 25.460L-104.030 26.130L-103.280 26.780L-102.510 27.420L-101.730 28.040L-101.060 28.650L-101.860 29.240L-102.680 29.810L-103.510 30.370L-104.340 30.910L-105.190 31.430L-106.050 31.940L-106.920 32.430L-107.800 32.900L-108.690 33.360L-109.580 33.800L-110.490 34.210L-111.400 34.610L-112.320 34.990L-113.250 35.360L-114.190 35.700L-115.130 36.030L-116.080 36.340L-117.040 36.620L-118 36.890L-118.960 37.140L-119.930 37.370L-120.910 37.580L-121.890 37.770L-122.870 37.940L-123.860 38.090L-124.840 38.230L-125.830 38.340L-126.830 38.430L-127.820 38.500L-128.820 38.550L-129.820 38.580L-130.810 38.600L-131.810 38.590L-132.810 38.570L-133.800 38.520L-134.800 38.460L-135.790 38.370L-136.790 38.270L-137.780 38.150L-138.760 38L-139.750 37.830L-140.730 37.650L-141.700 37.450L-142.670 37.220L-143.640 36.980L-144.600 36.720L-145.560 36.440L-146.510 36.140L-147.460 35.830L-148.400 35.490L-149.330 35.130L-150.250 34.760L-150.840 34.510L-150.730 33.410L-150.620 32.390L-150.480 31.370L-150.320 30.360L-150.150 29.360L-149.950 28.370L-149.740 27.380L-149.500 26.400L-149.250 25.430L-148.970 24.460L-148.680 23.510L-148.370 22.560L-148.040 21.620L-147.700 20.690L-147.330 19.770L-146.950 18.850L-146.550 17.950L-146.130 17.050L-145.700 16.170L-145.250 15.300L-144.780 14.430L-144.300 13.580L-143.800 12.730L-143.280 11.900L-142.750 11.080L-142.200 10.270L-141.640 9.470L-141.060 8.680L-140.470 7.900L-139.860 7.140L-139.240 6.390L-138.600 5.650L-137.950 4.920L-137.290 4.210L-136.610 3.500L-135.920 2.820L-135.220 2.140L-134.500 1.480L-133.770 0.840L-133.030 0.200L-132.270 -0.420L-131.510 -1.020L-130.730 -1.610L-129.940 -2.180L-129.130 -2.740L-128.320 -3.280L-127.490 -3.810L-126.660 -4.320L-125.810 -4.820L-124.950 -5.300L-124.090 -5.760L-123.210 -6.210L-122.320 -6.640L-121.430 -7.050L-120.830 -7.310Z" style="fill:#FF00FF;stroke:#000000;stroke-width:1;stroke-opacity:0;"/><path d="M-100.880 -51.320L-100.110 -50.720L-99.350 -50.110L-98.600 -49.480L-97.860 -48.840L-97.140 -48.190L-96.430 -47.520L-95.730 -46.840L-95.050 -46.150L-94.380 -45.440L-93.720 -44.720L-93.080 -43.990L-92.450 -43.240L-91.830 -42.480L-91.230 -41.710L-90.650 -40.930L-90.080 -40.140L-89.520 -39.330L-88.980 -38.510L-88.460 -37.690L-87.950 -36.850L-87.460 -36.000L-86.980 -35.140L-86.520 -34.270L-86.080 -33.390L-85.660 -32.500L-85.250 -31.600L-84.860 -30.690L-84.480 -29.770L-84.130 -28.850L-83.790 -27.910L-83.470 -26.970L-83.170 -26.010L-82.890 -25.050L-82.620 -24.090L-82.380 -23.110L-82.150 -22.130L-81.950 -21.140L-81.760 -20.140L-81.590 -19.130L-81.450 -18.120L-81.320 -17.100L-81.220 -16.080L-81.130 -15.050L-81.070 -14.010L-81.020 -12.970L-81 -11.930L-81 -10.870L-81.020 -9.830L-81.070 -8.790L-81.130 -7.750L-81.170 -7.310L-82.140 -7.720L-83.070 -8.090L-84 -8.440L-84.940 -8.770L-85.890 -9.080L-86.850 -9.370L-87.810 -9.640L-88.770 -9.890L-89.740 -10.120L-90.710 -10.340L-91.690 -10.530L-92.670 -10.710L-93.660 -10.860L-94.650 -11.000L-95.640 -11.120L-96.630 -11.210L-97.630 -11.290L-98.620 -11.350L-99.620 -11.380L-100.620 -11.400L-101.610 -11.390L-102.610 -11.370L-103.610 -11.330L-104.600 -11.270L-105.600 -11.190L-106.590 -11.090L-107.580 -10.970L-108.570 -10.830L-109.550 -10.670L-110.530 -10.490L-111.510 -10.290L-112.480 -10.070L-113.450 -9.830L-114.420 -9.570L-115.370 -9.300L-116.330 -9L-117.270 -8.690L-118.210 -8.360L-119.140 -8L-120.070 -7.630L-120.850 -7.470L-120.910 -8.470L-120.960 -9.470L-120.990 -10.460L-121 -11.460L-120.990 -12.460L-120.960 -13.450L-120.840 -15.450L-120.640 -17.430L-120.510 -18.420L-120.360 -19.410L-120.190 -20.390L-120 -21.370L-119.800 -22.340L-119.570 -23.320L-119.320 -24.280L-119.060 -25.240L-118.770 -26.200L-118.470 -27.150L-118.140 -28.090L-117.800 -29.030L-117.440 -29.960L-117.060 -30.880L-116.660 -31.800L-116.250 -32.700L-115.810 -33.600L-115.360 -34.490L-114.890 -35.370L-114.400 -36.240L-113.900 -37.100L-113.370 -37.950L-112.840 -38.790L-112.280 -39.620L-111.710 -40.430L-111.120 -41.240L-110.520 -42.040L-109.900 -42.820L-109.260 -43.580L-108.610 -44.340L-107.950 -45.080L-107.270 -45.810L-106.580 -46.530L-105.860 -47.230L-105.150 -47.930L-104.410 -48.600L-103.660 -49.260L-102.900 -49.900L-102.130 -50.530L-101.340 -51.150L-101 -51.410Z" style="fill:#FFFF00;stroke:#000000;stroke-width:1;stroke-opacity:0;"/><path d="M-80.120 -6.850L-79.210 -6.420L-78.320 -5.980L-77.440 -5.510L-76.570 -5.030L-75.700 -4.530L-74.840 -4.020L-74 -3.490L-73.170 -2.940L-72.340 -2.380L-71.530 -1.800L-70.730 -1.200L-69.950 -0.590L-69.170 0.040L-68.410 0.680L-67.660 1.340L-66.920 2.010L-66.200 2.700L-65.490 3.400L-64.800 4.120L-64.120 4.850L-63.450 5.590L-62.800 6.340L-62.160 7.110L-61.540 7.890L-60.940 8.690L-60.350 9.490L-59.770 10.310L-59.220 11.130L-58.670 11.970L-58.150 12.820L-57.640 13.680L-57.150 14.550L-56.680 15.430L-56.230 16.310L-55.800 17.210L-55.380 18.120L-54.980 19.030L-54.590 19.950L-54.230 20.880L-53.890 21.820L-53.560 22.760L-53.260 23.710L-52.970 24.670L-52.700 25.630L-52.450 26.590L-52.220 27.560L-52.010 28.540L-51.820 29.520L-51.650 30.500L-51.500 31.490L-51.370 32.480L-51.260 33.470L-51.170 34.460L-51.940 34.840L-52.860 35.210L-53.790 35.560L-54.720 35.890L-55.670 36.210L-56.620 36.500L-57.590 36.780L-58.560 37.040L-59.540 37.280L-60.520 37.500L-61.510 37.700L-62.510 37.880L-63.520 38.040L-64.530 38.190L-65.550 38.310L-66.580 38.410L-67.610 38.490L-68.650 38.550L-69.690 38.580L-70.740 38.600L-71.790 38.590L-72.830 38.570L-73.870 38.520L-74.910 38.450L-75.940 38.360L-76.960 38.250L-77.970 38.120L-78.980 37.970L-79.990 37.790L-80.980 37.600L-81.970 37.390L-82.950 37.160L-83.930 36.910L-84.900 36.640L-85.850 36.360L-86.800 36.050L-87.750 35.730L-88.680 35.380L-89.600 35.020L-90.520 34.650L-91.430 34.250L-92.320 33.840L-93.210 33.410L-94.090 32.960L-94.950 32.500L-95.810 32.020L-96.660 31.520L-97.490 31.010L-98.320 30.480L-99.130 29.940L-99.940 29.380L-100.730 28.810L-101 28.600L-100.570 28.280L-99.790 27.660L-99.020 27.030L-98.260 26.380L-97.510 25.720L-96.780 25.050L-96.060 24.360L-95.350 23.650L-94.660 22.940L-93.980 22.200L-93.320 21.460L-92.670 20.700L-92.040 19.930L-91.420 19.150L-90.820 18.350L-90.230 17.550L-89.660 16.730L-89.100 15.900L-88.570 15.060L-88.050 14.210L-87.540 13.350L-87.060 12.480L-86.590 11.600L-86.140 10.710L-85.710 9.800L-85.290 8.900L-84.900 7.980L-84.520 7.060L-84.160 6.130L-83.820 5.190L-83.500 4.250L-83.200 3.300L-82.920 2.340L-82.650 1.380L-82.400 0.410L-82.180 -0.560L-81.970 -1.540L-81.790 -2.520L-81.620 -3.500L-81.480 -4.490L-81.350 -5.480L-81.240 -6.470L-81.030 -7.250Z" style="fill:#00FFFF;stroke:#000000;stroke-width:1;stroke-opacity:0;"/><path d="M-99.690 -11.380L-98.650 -11.350L-97.610 -11.290L-96.580 -11.210L-95.550 -11.110L-94.530 -10.990L-93.520 -10.840L-92.510 -10.680L-91.510 -10.500L-90.520 -10.300L-89.540 -10.080L-88.560 -9.840L-87.590 -9.580L-86.620 -9.300L-85.670 -9.010L-84.720 -8.690L-83.790 -8.360L-82.860 -8.010L-81.940 -7.640L-81.170 -7.310L-81.310 -5.780L-81.570 -3.800L-81.730 -2.810L-81.920 -1.830L-82.110 -0.860L-82.330 0.120L-82.570 1.080L-82.830 2.050L-83.110 3L-83.400 3.960L-83.720 4.900L-84.060 5.840L-84.410 6.780L-84.780 7.700L-85.170 8.620L-85.580 9.530L-86 10.430L-86.450 11.320L-86.910 12.210L-87.390 13.080L-87.890 13.950L-88.400 14.800L-89.480 16.480L-90.050 17.300L-90.630 18.110L-91.230 18.910L-91.840 19.690L-92.470 20.470L-93.110 21.230L-93.770 21.980L-95.130 23.440L-96.550 24.840L-97.280 25.520L-98.030 26.180L-98.780 26.830L-99.550 27.470L-100.330 28.090L-101.120 28.520L-101.910 27.910L-102.680 27.280L-103.450 26.640L-104.200 25.980L-104.940 25.320L-105.660 24.630L-106.370 23.930L-107.070 23.220L-107.750 22.490L-108.420 21.750L-109.080 21L-109.720 20.230L-110.340 19.460L-110.950 18.670L-111.540 17.860L-112.120 17.050L-112.680 16.230L-113.220 15.390L-113.750 14.550L-114.260 13.690L-114.750 12.820L-115.230 11.940L-115.690 11.060L-116.550 9.260L-116.950 8.350L-117.330 7.420L-117.700 6.500L-118.050 5.560L-118.380 4.620L-118.690 3.670L-118.980 2.720L-119.250 1.760L-119.500 0.790L-119.740 -0.170L-119.950 -1.150L-120.140 -2.130L-120.310 -3.110L-120.470 -4.100L-120.610 -5.080L-120.720 -6.070L-120.810 -7.070L-120.830 -7.310L-120.520 -7.450L-119.600 -7.820L-118.680 -8.180L-117.750 -8.530L-116.800 -8.850L-115.850 -9.160L-114.900 -9.440L-113.930 -9.710L-112.950 -9.960L-111.970 -10.190L-110.980 -10.400L-109.990 -10.590L-108.980 -10.770L-107.970 -10.920L-106.960 -11.050L-105.940 -11.160L-104.910 -11.250L-103.870 -11.320L-102.830 -11.370L-101.790 -11.390L-100.740 -11.400Z" style="fill:#FFFFFF;stroke:#000000;stroke-width:1;stroke-opacity:0;"/></g></g>
<g><text x="0" y="0" font-family="sans-serif" font-size="18" text-anchor="middle" transform="matrix(1,0,0,1,100,-75)">subtraktiv</text><g><path d="M71.310 -61.380L72.310 -61.350L73.300 -61.300L74.300 -61.220L75.290 -61.130L76.280 -61.010L77.270 -60.870L78.250 -60.720L79.240 -60.550L80.220 -60.350L81.190 -60.140L82.160 -59.910L83.130 -59.660L84.080 -59.390L85.040 -59.100L85.990 -58.790L86.930 -58.460L87.870 -58.110L88.790 -57.750L89.710 -57.360L90.630 -56.960L91.530 -56.540L92.430 -56.100L93.310 -55.640L94.190 -55.170L95.060 -54.670L95.920 -54.170L96.760 -53.640L97.600 -53.100L98.420 -52.540L99.240 -51.960L99.950 -51.380L98.390 -50.140L97.620 -49.500L96.870 -48.850L96.130 -48.180L95.400 -47.490L94.690 -46.800L93.990 -46.080L93.310 -45.360L92.640 -44.620L91.980 -43.870L91.340 -43.100L90.710 -42.330L90.110 -41.540L89.510 -40.740L88.370 -39.100L87.830 -38.270L87.290 -37.420L86.780 -36.560L86.290 -35.700L85.350 -33.940L84.910 -33.040L84.490 -32.140L84.080 -31.230L83.700 -30.310L83.330 -29.380L82.980 -28.450L82.650 -27.500L82.340 -26.560L82.050 -25.600L81.770 -24.650L81.520 -23.680L81.280 -22.710L81.070 -21.740L80.870 -20.760L80.700 -19.780L80.550 -18.790L80.410 -17.800L80.290 -16.810L80.190 -15.820L80.120 -14.830L80.060 -13.830L80.020 -12.830L80 -11.840L80.020 -9.840L80.070 -8.840L80.130 -7.850L80.170 -7.310L79.570 -7.050L78.680 -6.640L77.790 -6.210L76.910 -5.760L76.050 -5.300L75.190 -4.820L74.340 -4.320L73.510 -3.810L72.680 -3.280L71.870 -2.740L71.060 -2.180L70.270 -1.610L69.490 -1.020L68.730 -0.420L67.970 0.200L67.230 0.840L66.500 1.480L65.780 2.140L65.080 2.820L64.390 3.500L63.710 4.210L63.050 4.920L62.400 5.650L61.760 6.390L61.140 7.140L60.530 7.900L59.940 8.680L59.360 9.470L58.800 10.270L58.250 11.080L57.720 11.900L57.200 12.730L56.700 13.580L56.220 14.430L55.750 15.300L55.300 16.170L54.870 17.050L54.450 17.950L54.050 18.850L53.670 19.770L53.300 20.690L52.960 21.620L52.630 22.560L52.320 23.510L52.030 24.460L51.750 25.430L51.500 26.400L51.260 27.380L51.050 28.370L50.850 29.360L50.680 30.360L50.520 31.370L50.380 32.390L50.270 33.410L50.170 34.430L49.830 34.360L48.920 33.950L48.020 33.520L47.130 33.070L46.250 32.610L45.380 32.120L44.510 31.620L43.660 31.100L42.820 30.570L41.990 30.020L41.170 29.450L40.360 28.870L39.560 28.270L38.770 27.660L38 27.030L37.250 26.370L36.500 25.720L35.760 25.040L35.050 24.350L34.340 23.650L33.650 22.920L32.970 22.190L32.310 21.450L31.660 20.690L31.030 19.920L30.410 19.140L29.810 18.340L29.220 17.530L28.650 16.710L28.100 15.880L27.560 15.040L27.040 14.190L26.540 13.330L26.050 12.460L25.580 11.580L25.130 10.690L24.700 9.790L24.290 8.880L23.890 7.970L23.510 7.040L23.160 6.110L22.820 5.170L22.500 4.230L22.190 3.280L21.910 2.320L21.650 1.360L21.400 0.400L21.180 -0.580L20.970 -1.550L20.790 -2.530L20.620 -3.520L20.470 -4.500L20.350 -5.490L20.240 -6.480L20.150 -7.480L20.090 -8.470L20.040 -9.470L20.010 -10.470L20 -11.460L20.010 -12.460L20.040 -13.460L20.100 -14.450L20.160 -15.450L20.360 -17.430L20.490 -18.420L20.640 -19.410L20.810 -20.390L21 -21.370L21.200 -22.350L21.430 -23.320L21.680 -24.280L21.940 -25.250L22.230 -26.200L22.540 -27.150L22.860 -28.090L23.200 -29.030L23.560 -29.960L23.940 -30.880L24.340 -31.800L24.760 -32.700L25.190 -33.600L25.640 -34.490L26.110 -35.370L26.600 -36.240L27.100 -37.100L27.630 -37.950L28.170 -38.790L28.720 -39.620L29.290 -40.440L29.880 -41.240L30.480 -42.040L31.110 -42.820L31.740 -43.590L32.390 -44.340L33.060 -45.090L33.730 -45.820L34.430 -46.540L35.140 -47.230L35.850 -47.930L36.590 -48.600L37.340 -49.260L38.100 -49.910L38.870 -50.530L39.660 -51.150L40.460 -51.750L41.270 -52.330L42.090 -52.890L42.930 -53.440L43.770 -53.970L44.620 -54.490L45.490 -54.990L46.360 -55.470L47.240 -55.930L48.130 -56.380L49.040 -56.800L49.940 -57.210L50.860 -57.600L51.790 -57.970L52.720 -58.330L53.660 -58.670L54.610 -58.980L55.560 -59.280L56.520 -59.560L57.480 -59.810L58.450 -60.050L59.420 -60.270L60.400 -60.470L61.380 -60.660L62.360 -60.820L63.350 -60.960L64.340 -61.080L65.330 -61.180L66.330 -61.270L67.320 -61.330L68.320 -61.370L69.320 -61.390L70.310 -61.400Z" style="fill:#00FFFF;stroke:#000000;stroke-width:1;stroke-opacity:0;"/><path d="M131.310 -61.380L132.310 -61.350L133.300 -61.300L134.300 -61.220L135.290 -61.130L136.280 -61.010L137.270 -60.870L138.250 -60.720L139.240 -60.550L140.220 -60.350L141.190 -60.140L142.160 -59.910L143.130 -59.660L144.090 -59.390L145.040 -59.100L145.990 -58.790L146.930 -58.460L147.870 -58.110L148.790 -57.750L149.710 -57.360L150.630 -56.960L151.530 -56.540L152.430 -56.100L153.310 -55.640L154.190 -55.160L155.060 -54.670L155.920 -54.170L156.760 -53.640L157.600 -53.100L158.430 -52.540L159.240 -51.960L160.050 -51.370L160.830 -50.760L161.610 -50.140L162.380 -49.500L163.130 -48.850L163.870 -48.180L164.600 -47.490L165.310 -46.800L166.010 -46.090L166.690 -45.360L167.370 -44.620L168.020 -43.870L168.660 -43.100L169.290 -42.330L169.900 -41.540L170.490 -40.740L171.070 -39.920L171.630 -39.100L172.180 -38.260L172.700 -37.420L173.220 -36.560L173.710 -35.700L174.190 -34.820L174.650 -33.940L175.090 -33.040L175.510 -32.140L175.910 -31.220L176.300 -30.300L176.670 -29.380L177.020 -28.440L177.350 -27.500L177.660 -26.560L177.950 -25.600L178.220 -24.640L178.480 -23.680L178.710 -22.710L178.930 -21.730L179.120 -20.760L179.300 -19.770L179.460 -18.790L179.590 -17.800L179.710 -16.810L179.800 -15.820L179.880 -14.820L179.940 -13.830L179.980 -12.830L180 -11.830L180 -10.840L179.980 -9.840L179.930 -8.840L179.880 -7.850L179.790 -6.850L179.700 -5.860L179.440 -3.880L179.280 -2.900L179.100 -1.920L178.900 -0.940L178.680 0.030L178.450 1L178.190 1.970L177.910 2.930L177.620 3.880L177.310 4.830L176.970 5.770L176.620 6.700L176.250 7.620L175.860 8.540L175.450 9.450L175.030 10.360L174.590 11.250L174.130 12.140L173.650 13.010L173.150 13.880L172.640 14.730L172.110 15.570L171.560 16.410L171 17.230L170.410 18.040L169.820 18.840L169.210 19.630L168.580 20.410L167.940 21.170L167.280 21.920L166.610 22.650L165.920 23.380L165.220 24.090L163.780 25.470L163.030 26.130L162.280 26.780L161.510 27.420L160.730 28.040L159.940 28.650L159.130 29.240L158.320 29.810L157.490 30.370L156.650 30.910L155.800 31.430L154.940 31.940L154.070 32.430L153.200 32.900L152.310 33.360L151.410 33.800L150.510 34.210L149.810 34.250L149.720 33.260L149.600 32.270L149.470 31.280L149.310 30.300L149.140 29.310L148.940 28.340L148.730 27.360L148.500 26.390L148.240 25.430L147.970 24.470L147.680 23.510L147.370 22.560L147.040 21.620L146.690 20.690L146.330 19.760L145.940 18.840L145.540 17.930L145.120 17.030L144.680 16.130L144.220 15.240L143.740 14.370L143.250 13.500L142.740 12.640L142.210 11.800L141.670 10.960L141.110 10.130L140.530 9.320L139.940 8.520L139.330 7.730L138.710 6.950L138.070 6.190L137.410 5.430L136.740 4.690L136.060 3.970L135.360 3.250L134.650 2.560L133.920 1.870L133.190 1.200L132.430 0.550L131.670 -0.090L130.890 -0.720L130.100 -1.330L129.300 -1.920L128.480 -2.500L127.660 -3.060L126.820 -3.600L125.980 -4.130L125.120 -4.640L124.250 -5.130L123.370 -5.610L122.490 -6.070L121.600 -6.510L120.690 -6.930L119.830 -7.310L119.870 -7.750L119.930 -8.790L119.980 -9.830L120 -10.870L120 -11.930L119.980 -12.970L119.930 -14.010L119.870 -15.050L119.780 -16.080L119.680 -17.100L119.550 -18.120L119.410 -19.130L119.240 -20.140L119.050 -21.140L118.850 -22.130L118.620 -23.110L118.380 -24.090L118.110 -25.050L117.830 -26.010L117.530 -26.970L117.210 -27.910L116.870 -28.850L116.520 -29.770L116.140 -30.690L115.750 -31.600L115.340 -32.500L114.920 -33.390L114.480 -34.270L114.020 -35.140L113.540 -36.000L113.050 -36.850L112.540 -37.690L112.020 -38.510L111.480 -39.330L110.920 -40.140L110.350 -40.930L109.770 -41.710L109.170 -42.480L108.550 -43.240L107.920 -43.990L107.280 -44.720L106.620 -45.440L105.950 -46.150L105.270 -46.840L104.570 -47.520L103.860 -48.190L103.140 -48.840L102.400 -49.480L101.650 -50.110L100.890 -50.720L100.120 -51.320L100 -51.410L100.460 -51.750L101.270 -52.320L102.090 -52.890L102.930 -53.440L103.770 -53.970L104.620 -54.490L106.360 -55.470L107.240 -55.930L108.130 -56.380L109.040 -56.800L109.940 -57.210L110.860 -57.600L111.790 -57.970L112.720 -58.330L113.660 -58.670L114.610 -58.980L115.560 -59.280L116.520 -59.560L117.480 -59.810L118.450 -60.050L119.420 -60.270L120.400 -60.470L121.380 -60.660L122.360 -60.820L123.350 -60.960L124.340 -61.080L125.330 -61.180L126.330 -61.270L127.320 -61.330L128.320 -61.370L129.320 -61.390L130.310 -61.400Z" style="fill:#FF00FF;stroke:#000000;stroke-width:1;stroke-opacity:0;"/><path d="M100.270 28.810L101.060 29.380L101.870 29.940L102.680 30.480L103.510 31.010L104.340 31.520L105.190 32.020L106.050 32.500L106.910 32.960L107.790 33.410L108.680 33.840L109.570 34.250L110.480 34.650L111.400 35.020L112.320 35.380L113.250 35.730L114.200 36.050L115.150 36.360L116.100 36.640L117.070 36.910L118.050 37.160L119.030 37.390L120.020 37.600L121.010 37.790L122.020 37.970L123.030 38.120L124.040 38.250L125.060 38.360L126.090 38.450L127.130 38.520L128.170 38.570L129.210 38.590L130.260 38.600L131.310 38.580L132.350 38.550L133.390 38.490L134.420 38.410L135.450 38.310L136.470 38.190L137.480 38.040L138.490 37.880L139.490 37.700L140.480 37.500L141.460 37.280L142.440 37.040L143.410 36.780L144.380 36.500L145.330 36.210L146.280 35.890L147.210 35.560L148.140 35.210L149.060 34.840L149.830 34.510L149.900 35.460L149.950 36.450L149.990 37.450L150 38.450L149.990 39.440L149.970 40.440L149.920 41.440L149.850 42.430L149.770 43.430L149.660 44.420L149.540 45.410L149.400 46.400L149.230 47.380L149.050 48.360L148.850 49.340L148.620 50.310L148.380 51.280L148.110 52.240L147.830 53.190L147.540 54.150L147.220 55.090L146.880 56.030L146.520 56.960L146.140 57.880L145.750 58.800L145.340 59.710L144.910 60.610L144.460 61.500L144 62.380L143.510 63.250L143.010 64.120L142.490 64.970L141.950 65.810L141.400 66.640L140.830 67.460L140.250 68.270L139.650 69.070L139.030 69.850L138.400 70.620L137.750 71.380L137.090 72.130L136.410 72.860L135.720 73.580L135.020 74.280L134.300 74.980L133.570 75.650L132.820 76.310L132.060 76.960L131.290 77.600L130.510 78.220L129.720 78.820L128.910 79.400L128.090 79.970L127.260 80.520L126.420 81.060L125.560 81.580L124.700 82.080L123.830 82.560L122.950 83.030L122.060 83.480L121.160 83.920L120.250 84.330L119.340 84.720L118.410 85.100L117.480 85.460L116.540 85.800L115.600 86.120L114.650 86.420L113.690 86.700L112.730 86.960L111.760 87.210L110.790 87.430L109.810 87.630L108.830 87.820L107.850 87.980L106.860 88.130L105.870 88.260L104.880 88.370L103.890 88.450L102.890 88.520L101.900 88.560L100.900 88.590L99.900 88.600L98.910 88.580L97.910 88.560L96.910 88.510L95.920 88.430L94.920 88.350L93.930 88.240L92.940 88.110L91.960 87.960L90.980 87.780L90 87.590L89.020 87.390L88.050 87.160L87.080 86.910L86.120 86.650L85.160 86.360L84.220 86.060L83.270 85.740L82.340 85.390L80.480 84.650L79.570 84.250L78.660 83.830L77.770 83.400L76.880 82.940L76 82.470L75.130 81.980L74.270 81.480L73.420 80.950L72.580 80.410L71.750 79.860L70.930 79.290L70.130 78.700L69.330 78.100L68.550 77.480L67.790 76.840L67.030 76.190L66.290 75.520L65.560 74.840L64.840 74.150L64.140 73.440L63.450 72.720L62.780 71.980L62.120 71.230L61.480 70.470L60.850 69.700L60.230 68.910L59.640 68.110L59.060 67.300L58.490 66.480L57.940 65.640L57.410 64.800L56.890 63.950L56.400 63.080L55.920 62.210L55.450 61.330L55.010 60.430L54.580 59.530L54.170 58.620L53.780 57.700L53.410 56.780L53.060 55.850L52.720 54.910L52.410 53.960L52.110 53.010L51.830 52.050L51.570 51.090L51.330 50.120L51.120 49.140L50.920 48.170L50.740 47.190L50.580 46.200L50.440 45.210L50.320 44.220L50.220 43.230L50.130 42.240L50.070 41.240L50.030 40.250L50.010 39.250L50 38.250L50.020 37.250L50.050 36.260L50.110 35.260L50.380 34.610L52.240 35.350L53.170 35.700L54.110 36.020L55.060 36.330L56.020 36.620L56.980 36.880L57.950 37.130L58.920 37.360L59.890 37.570L60.870 37.760L61.850 37.940L62.840 38.090L63.830 38.220L64.820 38.330L65.810 38.430L66.810 38.500L67.800 38.550L68.800 38.580L69.800 38.600L70.790 38.590L71.790 38.570L72.790 38.520L73.780 38.460L74.780 38.380L75.770 38.270L76.760 38.150L77.740 38L78.730 37.840L79.710 37.660L80.690 37.450L81.660 37.230L82.630 36.990L83.590 36.730L84.550 36.450L85.500 36.150L86.440 35.830L87.380 35.500L88.310 35.140L89.240 34.760L90.150 34.370L91.070 33.960L91.970 33.530L92.850 33.080L93.740 32.610L94.610 32.130L95.470 31.630L96.330 31.120L97.170 30.580L98 30.030L98.820 29.460L99.630 28.880L100 28.600Z" style="fill:#FFFF00;stroke:#000000;stroke-width:1;stroke-opacity:0;"/><path d="M80.210 -6.850L80.310 -5.860L80.420 -4.870L80.570 -3.880L80.720 -2.900L80.900 -1.920L81.100 -0.940L81.310 0.030L81.550 1L81.810 1.970L82.090 2.920L82.380 3.880L82.690 4.820L83.030 5.760L83.380 6.700L83.750 7.620L84.140 8.540L84.540 9.450L84.970 10.350L85.410 11.250L86.350 13.010L86.850 13.870L87.360 14.730L87.900 15.570L88.440 16.400L89.010 17.230L89.590 18.040L90.180 18.840L90.790 19.630L91.420 20.400L92.070 21.160L92.720 21.910L93.390 22.650L94.080 23.380L94.780 24.090L95.490 24.780L96.220 25.460L96.970 26.130L97.720 26.780L98.490 27.420L99.270 28.040L99.940 28.650L99.140 29.240L98.320 29.810L97.490 30.370L96.660 30.910L95.810 31.430L94.950 31.940L94.080 32.430L93.200 32.900L92.310 33.360L91.420 33.800L90.510 34.210L89.600 34.610L88.680 34.990L87.750 35.360L86.810 35.700L85.870 36.030L84.920 36.340L83.960 36.620L83 36.890L82.040 37.140L81.070 37.370L80.090 37.580L79.110 37.770L78.130 37.940L77.140 38.090L76.160 38.230L75.170 38.340L74.170 38.430L73.180 38.500L72.180 38.550L71.180 38.580L70.190 38.600L69.190 38.590L68.190 38.570L67.200 38.520L66.200 38.460L65.210 38.370L64.210 38.270L63.220 38.150L62.240 38L61.250 37.830L60.270 37.650L59.300 37.450L58.330 37.220L57.360 36.980L56.400 36.720L55.440 36.440L54.490 36.140L53.540 35.830L52.600 35.490L51.670 35.130L50.750 34.760L50.160 34.510L50.270 33.410L50.380 32.390L50.520 31.370L50.680 30.360L50.850 29.360L51.050 28.370L51.260 27.380L51.500 26.400L51.750 25.430L52.030 24.460L52.320 23.510L52.630 22.560L52.960 21.620L53.300 20.690L53.670 19.770L54.050 18.850L54.450 17.950L54.870 17.050L55.300 16.170L55.750 15.300L56.220 14.430L56.700 13.580L57.200 12.730L57.720 11.900L58.250 11.080L58.800 10.270L59.360 9.470L59.940 8.680L60.530 7.900L61.140 7.140L61.760 6.390L62.400 5.650L63.050 4.920L63.710 4.210L64.390 3.500L65.080 2.820L65.780 2.140L66.500 1.480L67.230 0.840L67.970 0.200L68.730 -0.420L69.490 -1.020L70.270 -1.610L71.060 -2.180L71.870 -2.740L72.680 -3.280L73.510 -3.810L74.340 -4.320L75.190 -4.820L76.050 -5.300L76.910 -5.760L77.790 -6.210L78.680 -6.640L79.570 -7.050L80.170 -7.310Z" style="fill:#00FF00;stroke:#000000;stroke-width:1;stroke-opacity:0;"/><path d="M100.120 -51.320L100.890 -50.720L101.650 -50.110L102.400 -49.480L103.140 -48.840L103.860 -48.190L104.570 -47.520L105.270 -46.840L105.950 -46.150L106.620 -45.440L107.280 -44.720L107.920 -43.990L108.550 -43.240L109.170 -42.480L109.770 -41.710L110.350 -40.930L110.920 -40.140L111.480 -39.330L112.020 -38.510L112.540 -37.690L113.050 -36.850L113.540 -36.000L114.020 -35.140L114.480 -34.270L114.920 -33.390L115.340 -32.500L115.750 -31.600L116.140 -30.690L116.520 -29.770L116.870 -28.850L117.210 -27.910L117.530 -26.970L117.830 -26.010L118.110 -25.050L118.380 -24.090L118.620 -23.110L118.850 -22.130L119.050 -21.140L119.240 -20.140L119.410 -19.130L119.550 -18.120L119.680 -17.100L119.780 -16.080L119.870 -15.050L119.930 -14.010L119.980 -12.970L120 -11.930L120 -10.870L119.980 -9.830L119.930 -8.790L119.870 -7.750L119.830 -7.310L118.860 -7.720L117.930 -8.090L117 -8.440L116.060 -8.770L115.110 -9.080L114.150 -9.370L113.190 -9.640L112.230 -9.890L111.260 -10.120L110.290 -10.340L109.310 -10.530L108.330 -10.710L107.340 -10.860L106.350 -11.000L105.360 -11.120L104.370 -11.210L103.370 -11.290L102.380 -11.350L101.380 -11.380L100.380 -11.400L99.390 -11.390L98.390 -11.370L97.390 -11.330L96.400 -11.270L95.400 -11.190L94.410 -11.090L93.420 -10.970L92.430 -10.830L91.450 -10.670L90.470 -10.490L89.490 -10.290L88.520 -10.070L87.550 -9.830L86.580 -9.570L85.630 -9.300L84.670 -9L83.730 -8.690L82.790 -8.360L81.860 -8L80.930 -7.630L80.150 -7.470L80.090 -8.470L80.040 -9.470L80.010 -10.460L80 -11.460L80.010 -12.460L80.040 -13.450L80.160 -15.450L80.360 -17.430L80.490 -18.420L80.640 -19.410L80.810 -20.390L81 -21.370L81.200 -22.340L81.430 -23.320L81.680 -24.280L81.940 -25.240L82.230 -26.200L82.530 -27.150L82.860 -28.090L83.200 -29.030L83.560 -29.960L83.940 -30.880L84.340 -31.800L84.750 -32.700L85.190 -33.600L85.640 -34.490L86.110 -35.370L86.600 -36.240L87.100 -37.100L87.630 -37.950L88.160 -38.790L88.720 -39.620L89.290 -40.430L89.880 -41.240L90.480 -42.040L91.100 -42.820L91.740 -43.580L92.390 -44.340L93.050 -45.080L93.730 -45.810L94.420 -46.530L95.140 -47.230L95.850 -47.930L96.590 -48.600L97.340 -49.260L98.100 -49.900L98.870 -50.530L99.660 -51.150L100 -51.410Z" style="fill:#0000FF;stroke:#000000;stroke-width:1;stroke-opacity:0;"/><path d="M120.880 -6.850L121.790 -6.420L122.680 -5.980L123.560 -5.510L124.430 -5.030L125.300 -4.530L126.160 -4.020L127 -3.490L127.830 -2.940L128.660 -2.380L129.470 -1.800L130.270 -1.200L131.050 -0.590L131.830 0.040L132.590 0.680L133.340 1.340L134.080 2.010L134.800 2.700L135.510 3.400L136.200 4.120L136.880 4.850L137.550 5.590L138.200 6.340L138.840 7.110L139.460 7.890L140.060 8.690L140.650 9.490L141.230 10.310L141.780 11.130L142.330 11.970L142.850 12.820L143.360 13.680L143.850 14.550L144.320 15.430L144.770 16.310L145.200 17.210L145.620 18.120L146.020 19.030L146.410 19.950L146.770 20.880L147.110 21.820L147.440 22.760L147.740 23.710L148.030 24.670L148.300 25.630L148.550 26.590L148.780 27.560L148.990 28.540L149.180 29.520L149.350 30.500L149.500 31.490L149.630 32.480L149.740 33.470L149.830 34.460L149.060 34.840L148.140 35.210L147.210 35.560L146.280 35.890L145.330 36.210L144.380 36.500L143.410 36.780L142.440 37.040L141.460 37.280L140.480 37.500L139.490 37.700L138.490 37.880L137.480 38.040L136.470 38.190L135.450 38.310L134.420 38.410L133.390 38.490L132.350 38.550L131.310 38.580L130.260 38.600L129.210 38.590L128.170 38.570L127.130 38.520L126.090 38.450L125.060 38.360L124.040 38.250L123.030 38.120L122.020 37.970L121.010 37.790L120.020 37.600L119.030 37.390L118.050 37.160L117.070 36.910L116.100 36.640L115.150 36.360L114.200 36.050L113.250 35.730L112.320 35.380L111.400 35.020L110.480 34.650L109.570 34.250L108.680 33.840L107.790 33.410L106.910 32.960L106.050 32.500L105.190 32.020L104.340 31.520L103.510 31.010L102.680 30.480L101.870 29.940L101.060 29.380L100.270 28.810L100 28.600L100.430 28.280L101.210 27.660L101.980 27.030L102.740 26.380L103.490 25.720L104.220 25.050L104.940 24.360L105.650 23.650L106.340 22.940L107.020 22.200L107.680 21.460L108.330 20.700L108.960 19.930L109.580 19.150L110.180 18.350L110.770 17.550L111.340 16.730L111.900 15.900L112.430 15.060L112.950 14.210L113.460 13.350L113.940 12.480L114.410 11.600L114.860 10.710L115.290 9.800L115.710 8.900L116.100 7.980L116.480 7.060L116.840 6.130L117.180 5.190L117.500 4.250L117.800 3.300L118.080 2.340L118.350 1.380L118.600 0.410L118.820 -0.560L119.030 -1.540L119.210 -2.520L119.380 -3.500L119.520 -4.490L119.650 -5.480L119.760 -6.470L119.970 -7.250Z" style="fill:#FF0000;stroke:#000000;stroke-width:1;stroke-opacity:0;"/><path d="M101.310 -11.380L102.350 -11.350L103.390 -11.290L104.420 -11.210L105.450 -11.110L106.470 -10.990L107.480 -10.840L108.490 -10.680L109.490 -10.500L110.480 -10.300L111.460 -10.080L112.440 -9.840L113.410 -9.580L114.380 -9.300L115.330 -9.010L116.280 -8.690L117.210 -8.360L118.140 -8.010L119.060 -7.640L119.830 -7.310L119.690 -5.780L119.430 -3.800L119.270 -2.810L119.080 -1.830L118.890 -0.860L118.670 0.120L118.430 1.080L118.170 2.050L117.890 3L117.600 3.960L117.280 4.900L116.940 5.840L116.590 6.780L116.220 7.700L115.830 8.620L115.420 9.530L115 10.430L114.550 11.320L114.090 12.210L113.610 13.080L113.110 13.950L112.600 14.800L111.520 16.480L110.950 17.300L110.370 18.110L109.770 18.910L109.160 19.690L108.530 20.470L107.890 21.230L107.230 21.980L105.870 23.440L104.450 24.840L103.720 25.520L102.970 26.180L102.220 26.830L101.450 27.470L100.670 28.090L99.880 28.520L99.090 27.910L98.320 27.280L97.550 26.640L96.800 25.980L96.060 25.320L95.340 24.630L94.630 23.930L93.930 23.220L93.250 22.490L92.580 21.750L91.920 21L91.280 20.230L90.660 19.460L90.050 18.670L89.460 17.860L88.880 17.050L88.320 16.230L87.780 15.390L87.250 14.550L86.740 13.690L86.250 12.820L85.770 11.940L85.310 11.060L84.450 9.260L84.050 8.350L83.670 7.420L83.300 6.500L82.950 5.560L82.620 4.620L82.310 3.670L82.020 2.720L81.750 1.760L81.500 0.790L81.260 -0.170L81.050 -1.150L80.860 -2.130L80.690 -3.110L80.530 -4.100L80.390 -5.080L80.280 -6.070L80.190 -7.070L80.170 -7.310L80.480 -7.450L81.400 -7.820L82.320 -8.180L83.250 -8.530L84.200 -8.850L85.150 -9.160L86.100 -9.440L87.070 -9.710L88.050 -9.960L89.030 -10.190L90.020 -10.400L91.010 -10.590L92.020 -10.770L93.030 -10.920L94.040 -11.050L95.060 -11.160L96.090 -11.250L97.130 -11.320L98.170 -11.370L99.210 -11.390L100.260 -11.400Z" style="stroke:#000000;stroke-width:1;stroke-opacity:0;"/></g></g>
</g>
</svg>
